<svg xmlns="http://www.w3.org/2000/svg" viewBox="0 0 644 534.55"><defs><style>.cls-1{fill:#385b64;}.cls-2{fill:#ff4e5a;}.cls-3{fill:#1e2f37;}.cls-4{fill:#1c2f36;}.cls-5{fill:#fff;}</style></defs><title>bad-robot</title><g id="Camada_2" data-name="Camada 2"><g id="Camada_1-2" data-name="Camada 1"><rect class="cls-1" x="130.86" y="28.16" width="12.69" height="130.85" transform="translate(-9.39 15.53) rotate(-6.26)"/><polygon class="cls-1" points="505.23 161.65 494.08 155.59 523.61 101.23 500.95 78.85 524.29 38.09 535.3 44.4 516.81 76.68 539.32 98.9 505.23 161.65"/><path class="cls-1" d="M76.14,191.93h0A76.14,76.14,0,0,0,0,268.07v9.52a76.13,76.13,0,0,0,76.14,76.13h0Z"/><path class="cls-1" d="M567.86,191.93h0A76.14,76.14,0,0,1,644,268.07v9.52a76.13,76.13,0,0,1-76.14,76.13h0Z"/><rect class="cls-2" x="61.86" y="138" width="520.28" height="396.55" rx="88.73"/><circle class="cls-3" cx="130.07" cy="26.97" r="26.97"/><path class="cls-4" d="M463.3,358.48c43.73,0,79.18-36.22,79.18-80.89h0c0-44.68-35.45-80.9-79.18-80.9H180.7c-43.73,0-79.18,36.22-79.18,80.9h0c0,44.67,35.45,80.89,79.18,80.89Z"/><path class="cls-5" d="M233.17,309.31a4.72,4.72,0,0,1-3.36-1.39L163.19,241.3a4.76,4.76,0,0,1,6.73-6.73l66.62,66.62a4.76,4.76,0,0,1-3.37,8.12Z"/><path class="cls-5" d="M166.55,309.31a4.76,4.76,0,0,1-3.36-8.12l66.62-66.62a4.76,4.76,0,1,1,6.73,6.73l-66.62,66.62A4.75,4.75,0,0,1,166.55,309.31Z"/><path class="cls-5" d="M477.45,309.31a4.75,4.75,0,0,1-3.37-1.39L407.46,241.3a4.76,4.76,0,0,1,6.73-6.73l66.62,66.62a4.76,4.76,0,0,1-3.36,8.12Z"/><path class="cls-5" d="M410.83,309.31a4.76,4.76,0,0,1-3.37-8.12l66.62-66.62a4.76,4.76,0,0,1,6.73,6.73l-66.62,66.62A4.72,4.72,0,0,1,410.83,309.31Z"/><path class="cls-4" d="M467.28,382.28H176.72A94.35,94.35,0,0,1,82.48,288V270.31a94.35,94.35,0,0,1,94.24-94.24H467.28a94.35,94.35,0,0,1,94.24,94.24V288A94.35,94.35,0,0,1,467.28,382.28Zm-290.56-203a91.17,91.17,0,0,0-91.06,91.07V288a91.16,91.16,0,0,0,91.06,91.06H467.28A91.16,91.16,0,0,0,558.34,288V270.31a91.17,91.17,0,0,0-91.06-91.07Z"/><rect class="cls-4" x="158.7" y="379.21" width="3.17" height="155.34"/><circle class="cls-4" cx="134.83" cy="406.07" r="6.34"/><circle class="cls-4" cx="134.83" cy="469.52" r="6.34"/><rect class="cls-4" x="482.13" y="379.21" width="3.17" height="155.34"/><circle class="cls-4" cx="509.17" cy="406.07" r="6.34"/><circle class="cls-4" cx="509.17" cy="469.52" r="6.34"/><rect class="cls-4" x="185.59" y="404.48" width="272.83" height="28.55"/><circle class="cls-3" cx="529.79" cy="39.66" r="26.97"/></g></g></svg>