<svg xmlns="http://www.w3.org/2000/svg" viewBox="0 0 100 100"><defs><style>.cls-1{fill:#333;}</style></defs><g id="Layer_2" data-name="Layer 2"><g id="Layer_1-2" data-name="Layer 1"><path class="cls-1" d="M80,0H20A20,20,0,0,0,0,20V80a20,20,0,0,0,20,20H80a20,20,0,0,0,20-20V20A20,20,0,0,0,80,0ZM45.2,59.62,31.64,73.18l6.92,0A3.41,3.41,0,1,1,38.51,80l-15.06-.1-.22,0-.41,0h0l-.3-.09-.3-.1h0l-.3-.16-.06,0c-.06,0-.13-.06-.2-.11l0,0-.26-.2c-.08-.07-.17-.13-.24-.2h0c-.07-.07-.13-.16-.2-.24a2.56,2.56,0,0,1-.2-.26,0,0,0,0,1,0,0,2,2,0,0,1-.11-.2l0-.06-.16-.29v0c0-.1-.06-.2-.09-.3s-.07-.2-.1-.3v0a2.7,2.7,0,0,1-.05-.41c0-.08,0-.14,0-.22L20,61.49a3.4,3.4,0,0,1,1-2.44,3.45,3.45,0,0,1,2.39-1,3.41,3.41,0,0,1,3.43,3.39l.05,6.92L40.38,54.8a3.41,3.41,0,1,1,4.82,4.82ZM79.05,41a3.45,3.45,0,0,1-2.39,1,3.41,3.41,0,0,1-3.43-3.39l0-6.92L59.62,45.2a3.41,3.41,0,1,1-4.82-4.82L68.36,26.82l-6.92-.05A3.41,3.41,0,1,1,61.49,20l15.06.1.22,0,.41,0h0l.3.09.3.1h0l.3.16.06,0c.06,0,.13.06.2.11l0,0,.26.2c.08.07.17.13.24.2h0c.07.07.13.16.2.24a2.56,2.56,0,0,1,.2.26,0,0,0,0,1,0,0,2,2,0,0,1,.11.2l0,.06.16.29v0c0,.1.06.2.09.3s.07.2.1.3v0a2.7,2.7,0,0,1,0,.41c0,.08,0,.14,0,.22L80,38.51A3.4,3.4,0,0,1,79.05,41Z"/></g></g></svg>