<svg xmlns="http://www.w3.org/2000/svg" viewBox="0 0 100 100"><defs><style>.cls-1{fill:#333;}</style></defs><g id="Layer_2" data-name="Layer 2"><g id="Layer_1-2" data-name="Layer 1"><path class="cls-1" d="M80,0H20A20,20,0,0,0,0,20V80a20,20,0,0,0,20,20H80a20,20,0,0,0,20-20V20A20,20,0,0,0,80,0ZM45.2,45.2a3.41,3.41,0,0,1-4.82,0L26.82,31.64l-.05,6.92A3.41,3.41,0,1,1,20,38.51l.1-15.06c0-.08,0-.14,0-.22s0-.28,0-.41v0c0-.1.06-.2.09-.3s.06-.2.1-.3v0l.16-.29,0-.06c0-.06.06-.13.11-.2a0,0,0,0,1,0,0c.06-.09.13-.17.2-.26s.13-.17.2-.24h0c.07-.07.16-.13.24-.2a2.56,2.56,0,0,1,.26-.2,0,0,0,0,1,0,0l.2-.11.06,0,.29-.16h0l.3-.09.3-.1h0a2.7,2.7,0,0,1,.41-.05l.22,0L38.51,20A3.4,3.4,0,0,1,41,21a3.45,3.45,0,0,1,1,2.39,3.41,3.41,0,0,1-3.39,3.43l-6.92.05L45.2,40.38A3.41,3.41,0,0,1,45.2,45.2ZM79.94,76.55c0,.08,0,.14,0,.22s0,.28,0,.41v0c0,.1-.06.2-.09.3s-.06.2-.1.3v0c0,.11-.11.2-.16.3l0,.06c0,.06-.06.13-.11.2a0,0,0,0,1,0,0c-.06.09-.13.17-.2.26s-.13.17-.2.24h0c-.07.07-.16.13-.24.2a2.56,2.56,0,0,1-.26.2l0,0-.2.11-.06,0-.29.16h0l-.3.09-.3.1h0a2.7,2.7,0,0,1-.41,0l-.22,0L61.49,80a3.4,3.4,0,0,1-2.44-1,3.45,3.45,0,0,1-1-2.39,3.41,3.41,0,0,1,3.39-3.43l6.92,0L54.8,59.62a3.41,3.41,0,1,1,4.82-4.82L73.18,68.36l0-6.92a3.41,3.41,0,1,1,6.81.05Z"/></g></g></svg>