<svg xmlns="http://www.w3.org/2000/svg" viewBox="0 0 200 229.21"><defs><style>.cls-1{fill:#fff;}.cls-2{fill:#e5e5e5;}.cls-3{fill:#ccc;}.cls-4{fill:#2b2b2b;}.cls-5{fill:#1f1f1f;}.cls-6{fill:#af0d1a;}</style></defs><g id="Layer_2" data-name="Layer 2"><g id="Layer_1-2" data-name="Layer 1"><path d="M94.74,1.58,4.28,61.35a9.56,9.56,0,0,0-4.28,8V159.9a9.56,9.56,0,0,0,4.28,8l90.46,59.77a9.53,9.53,0,0,0,10.52,0l90.46-59.77a9.56,9.56,0,0,0,4.28-8V69.31a9.56,9.56,0,0,0-4.28-8L105.26,1.58A9.53,9.53,0,0,0,94.74,1.58Z"/><polygon class="cls-1" points="100 14.11 13.73 71.11 13.73 158.11 186.27 158.11 186.27 71.11 100 14.11"/><polygon class="cls-2" points="100 128.11 13.73 71.11 13.73 158.11 100.12 215.11 120.17 201.78 120.17 128.11 100 128.11"/><polygon class="cls-3" points="186.27 71.11 100 128.11 100 215.11 186.27 158.11 186.27 71.11"/><ellipse class="cls-4" cx="39.1" cy="117.81" rx="9.63" ry="12.76" transform="translate(-66.16 52.02) rotate(-39.63)"/><ellipse class="cls-4" cx="75.26" cy="168.81" rx="9.63" ry="12.76" transform="translate(-90.38 86.81) rotate(-39.63)"/><ellipse class="cls-5" cx="169.68" cy="102.81" rx="12.76" ry="9.63" transform="translate(-17.73 167.91) rotate(-50.37)"/><ellipse class="cls-5" cx="144.57" cy="142.81" rx="12.76" ry="9.63" transform="translate(-57.63 163.06) rotate(-50.37)"/><ellipse class="cls-5" cx="118.45" cy="182.81" rx="12.76" ry="9.63" transform="translate(-97.89 157.43) rotate(-50.37)"/><ellipse class="cls-6" cx="100" cy="71.11" rx="14.06" ry="10.5"/></g></g></svg>