<?xml version="1.0" encoding="utf-8"?>
<!-- Generator: Adobe Illustrator 26.1.0, SVG Export Plug-In . SVG Version: 6.00 Build 0)  -->
<svg version="1.1" id="Layer_1" xmlns="http://www.w3.org/2000/svg" xmlns:xlink="http://www.w3.org/1999/xlink" x="0px" y="0px"
	 viewBox="0 0 16 16" style="enable-background:new 0 0 16 16;" xml:space="preserve">
<style type="text/css">
	.st0{fill:#333333;}
	.st1{fill:#FFFFFF;}
</style>
<path class="st0" d="M12.4,16H3.6c-2,0-3.6-1.6-3.6-3.6V3.6C0,1.6,1.6,0,3.6,0h8.9c2,0,3.6,1.6,3.6,3.6v8.9C16,14.4,14.4,16,12.4,16
	z"/>
<g>
	<path class="st1" d="M10.2,13.4c0-0.7-0.2-1.1-0.5-1.3c1.6-0.2,3.4-0.9,3.4-3.8c0-0.9-0.3-1.5-0.8-2.1c0.1-0.2,0.3-1-0.1-2
		c0,0-0.7-0.2-2.1,0.8C9.6,4.7,9,4.6,8.3,4.6C7.6,4.6,7.1,4.7,6.4,5C5,4.1,4.3,4.3,4.3,4.3c-0.5,1.1-0.2,1.8-0.1,2
		C3.7,6.8,3.4,7.5,3.4,8.4c0,2.9,1.7,3.5,3.4,3.7c-0.2,0.2-0.4,0.6-0.5,1.1c-0.4,0.2-1.5,0.5-2.2-0.7c-0.1-0.2-0.6-0.8-1.1-0.8
		c-0.7,0-0.3,0.4,0,0.5c0.3,0.2,0.7,0.9,0.8,1.1c0.2,0.4,0.7,1.2,2.6,0.9c0,0.1,0,0.2,0,0.3c0,0.5,0,0.9,0,1.1V16h3.8v-0.5
		C10.2,15.2,10.2,14.4,10.2,13.4z"/>
</g>
</svg>
