<svg xmlns="http://www.w3.org/2000/svg" viewBox="0 0 100 100"><defs><style>.cls-1{fill:#333;}</style></defs><g id="Layer_2" data-name="Layer 2"><g id="Layer_1-2" data-name="Layer 1"><path class="cls-1" d="M20,100H80a20,20,0,0,0,20-20V20A20,20,0,0,0,80,0H20A20,20,0,0,0,0,20V80A20,20,0,0,0,20,100ZM59.48,46.83H77.32L72.8,42.25a3.17,3.17,0,0,1,4.52-4.46l9.84,10,.12.16a2.34,2.34,0,0,1,.25.3v0a1.3,1.3,0,0,1,.14.26,2,2,0,0,1,.14.25v0a1.4,1.4,0,0,1,.09.29.14.14,0,0,1,0,.06,1.66,1.66,0,0,1,.06.21v0c0,.1,0,.21,0,.31a2.85,2.85,0,0,1,0,.29h0a2.85,2.85,0,0,1,0,.29c0,.1,0,.2,0,.3v0a1.66,1.66,0,0,1-.06.21.14.14,0,0,1,0,.06,1.61,1.61,0,0,1-.09.29v0a2.15,2.15,0,0,1-.14.26,1.3,1.3,0,0,1-.14.26v0a2.34,2.34,0,0,1-.25.3l-.12.16-9.84,10a3.17,3.17,0,0,1-4.52-4.46l4.52-4.58H59.48a3.17,3.17,0,1,1,0-6.34ZM11.93,50a2.85,2.85,0,0,1,0-.29c0-.1,0-.2,0-.3v0a1.66,1.66,0,0,1,.06-.21.14.14,0,0,1,0-.06,1.61,1.61,0,0,1,.09-.29v0a2.15,2.15,0,0,1,.14-.26,1.3,1.3,0,0,1,.14-.26v0a2.34,2.34,0,0,1,.25-.3l.12-.16,9.84-10a3.17,3.17,0,0,1,4.52,4.46l-4.52,4.58H40.52a3.17,3.17,0,0,1,0,6.34H22.68l4.52,4.58a3.17,3.17,0,0,1-4.52,4.46l-9.84-10-.12-.16a2.34,2.34,0,0,1-.25-.3v0a1.3,1.3,0,0,1-.14-.26,2,2,0,0,1-.14-.25v0a1.4,1.4,0,0,1-.09-.29.14.14,0,0,1,0-.06,1.66,1.66,0,0,1-.06-.21v0c0-.1,0-.21,0-.31a2.85,2.85,0,0,1,0-.29h0Z"/></g></g></svg>