<svg xmlns="http://www.w3.org/2000/svg" viewBox="0 0 100 100"><defs><style>.cls-1{fill:#333;}.cls-2{fill:#fff;}</style></defs><g id="Layer_2" data-name="Layer 2"><g id="Layer_1-2" data-name="Layer 1"><rect class="cls-1" width="100" height="100" rx="50"/><path class="cls-2" d="M50.21,37.78a12,12,0,1,0,12,12A12,12,0,0,0,50.21,37.78Zm-8.3,12a8.3,8.3,0,1,1,8.3,8.3A8.29,8.29,0,0,1,41.91,49.77Z"/><path class="cls-2" d="M56.84,25.18a6.92,6.92,0,0,0-13.27,0l-.35,1.18a3.23,3.23,0,0,1-4,2.18,3.48,3.48,0,0,1-.63-.26l-1.08-.59a6.92,6.92,0,0,0-9.39,9.38l.59,1.08a3.23,3.23,0,0,1-1.29,4.38,2.89,2.89,0,0,1-.63.26l-1.18.35a6.92,6.92,0,0,0,0,13.27l1.18.35a3.22,3.22,0,0,1,2.18,4,3,3,0,0,1-.26.64l-.59,1.07a6.92,6.92,0,0,0,9.39,9.39l1.08-.59A3.23,3.23,0,0,1,43,72.56a2.89,2.89,0,0,1,.26.63l.35,1.18a6.92,6.92,0,0,0,13.27,0l.35-1.18a3.24,3.24,0,0,1,4-2.18,3.8,3.8,0,0,1,.63.26l1.08.59a6.92,6.92,0,0,0,9.38-9.39L71.7,61.4A3.23,3.23,0,0,1,73,57a3,3,0,0,1,.64-.26l1.17-.35a6.92,6.92,0,0,0,0-13.27l-1.17-.35a3.23,3.23,0,0,1-2.19-4,3.58,3.58,0,0,1,.26-.64l.6-1.08a6.92,6.92,0,0,0-9.39-9.38l-1.08.59A3.23,3.23,0,0,1,57.45,27a3.1,3.1,0,0,1-.26-.63Zm-9.73,1a3.23,3.23,0,0,1,6.19,0l.35,1.18a6.91,6.91,0,0,0,8.59,4.68,6.72,6.72,0,0,0,1.36-.56l1.07-.59a3.23,3.23,0,0,1,4.38,4.38l-.59,1.08a6.91,6.91,0,0,0,2.77,9.38,6.11,6.11,0,0,0,1.35.56l1.18.35a3.23,3.23,0,0,1,0,6.19l-1.18.34a6.94,6.94,0,0,0-4.12,10l.59,1.07a3.23,3.23,0,0,1-4.38,4.38L63.6,68a6.92,6.92,0,0,0-9.39,2.76,6.39,6.39,0,0,0-.56,1.36l-.35,1.18a3.23,3.23,0,0,1-6.19,0l-.34-1.18a6.92,6.92,0,0,0-8.6-4.68,6.63,6.63,0,0,0-1.35.56l-1.08.59a3.23,3.23,0,0,1-4.37-4.38L32,63.17a6.92,6.92,0,0,0-2.76-9.39,6.75,6.75,0,0,0-1.36-.57l-1.18-.35a3.22,3.22,0,0,1,0-6.18l1.18-.35a6.92,6.92,0,0,0,4.68-8.6A6.79,6.79,0,0,0,32,36.39l-.59-1.08a3.23,3.23,0,0,1,4.38-4.38l1.08.59a6.92,6.92,0,0,0,9.39-2.77,7.25,7.25,0,0,0,.56-1.35Z"/></g></g></svg>