<svg xmlns="http://www.w3.org/2000/svg" viewBox="0 0 100 100"><defs><style>.cls-1{fill:none;}.cls-2{fill:#fff;}.cls-3{fill:#eb4645;}.cls-4{fill:#039dd1;}</style></defs><g id="Layer_2" data-name="Layer 2"><g id="Layer_1-2" data-name="Layer 1"><rect class="cls-1" width="100" height="100" rx="20"/><path class="cls-2" d="M59.65,65.3a3,3,0,0,1,0,.31c0,.11,0,.22,0,.33a0,0,0,0,0,0,0,1.41,1.41,0,0,1-.06.22.14.14,0,0,0,0,.06c0,.11-.06.22-.1.32v0c0,.09-.1.18-.15.27a1.84,1.84,0,0,1-.15.28l0,0a2.78,2.78,0,0,1-.27.33,1.83,1.83,0,0,1-.13.16L48.09,78.41a3.4,3.4,0,1,1-4.85-4.78l4.85-4.93H27.43A10.68,10.68,0,0,1,16.76,58V53.81a3.41,3.41,0,1,1,6.82,0V58a3.85,3.85,0,0,0,3.85,3.85H48.09L43.24,57a3.41,3.41,0,1,1,4.85-4.79L58.67,62.9a1.83,1.83,0,0,1,.13.16,2.78,2.78,0,0,1,.27.33l0,0a2.49,2.49,0,0,1,.15.28c0,.09.11.18.15.27v0c0,.1.06.21.1.32a.14.14,0,0,0,0,.06,1.41,1.41,0,0,1,.06.22,0,0,0,0,0,0,0c0,.11,0,.22,0,.33s0,.21,0,.31h0Z"/><path class="cls-2" d="M83.24,46.19a3.41,3.41,0,0,1-6.82,0V42a3.85,3.85,0,0,0-3.85-3.85H51.91L56.76,43a3.41,3.41,0,1,1-4.85,4.79L41.33,37.1a1.83,1.83,0,0,1-.13-.16,2.78,2.78,0,0,1-.27-.33l0,0a2.49,2.49,0,0,1-.15-.28c0-.09-.11-.18-.15-.27v0c0-.1-.06-.21-.1-.32a.14.14,0,0,0,0-.06,1.41,1.41,0,0,1-.06-.22,0,0,0,0,0,0,0c0-.11,0-.22,0-.33s0-.21,0-.31h0a3,3,0,0,1,0-.31c0-.11,0-.22,0-.33a0,0,0,0,0,0,0,1.41,1.41,0,0,1,.06-.22.14.14,0,0,0,0-.06c0-.11.06-.22.1-.32v0c0-.09.1-.18.15-.27a1.84,1.84,0,0,1,.15-.28l0,0a2.78,2.78,0,0,1,.27-.33,1.83,1.83,0,0,1,.13-.16L51.91,21.59a3.4,3.4,0,1,1,4.85,4.78L51.91,31.3H72.57A10.68,10.68,0,0,1,83.24,42Z"/><circle class="cls-3" cx="28.69" cy="34.71" r="7.67"/><circle class="cls-4" cx="71.31" cy="65.29" r="7.67"/></g></g></svg>