<svg xmlns="http://www.w3.org/2000/svg" viewBox="0 0 100 100"><defs><style>.cls-1{fill:#333;}</style></defs><g id="Layer_2" data-name="Layer 2"><g id="Layer_1-2" data-name="Layer 1"><path class="cls-1" d="M100,80V20A20,20,0,0,0,80,0H20A20,20,0,0,0,0,20V80a20,20,0,0,0,20,20H80A20,20,0,0,0,100,80ZM46.83,40.52V22.68L42.25,27.2a3.17,3.17,0,0,1-4.46-4.52l10-9.84.16-.12a2.34,2.34,0,0,1,.3-.25h0a1.3,1.3,0,0,1,.26-.14,2,2,0,0,1,.25-.14h0a1.4,1.4,0,0,1,.29-.09l.06,0,.21-.06h0c.1,0,.21,0,.31,0a2.85,2.85,0,0,1,.29,0h0a2.85,2.85,0,0,1,.29,0l.3,0h0l.21.06.06,0a1.61,1.61,0,0,1,.29.09h0l.26.14a1.3,1.3,0,0,1,.26.14h0a2.34,2.34,0,0,1,.3.25l.16.12,10,9.84a3.17,3.17,0,1,1-4.46,4.52l-4.58-4.52V40.52a3.17,3.17,0,1,1-6.34,0ZM50,88.07a2.85,2.85,0,0,1-.29,0l-.3,0h0l-.21-.06-.06,0a1.61,1.61,0,0,1-.29-.09h0l-.26-.14a1.3,1.3,0,0,1-.26-.14h0a2.34,2.34,0,0,1-.3-.25l-.16-.12-10-9.84a3.17,3.17,0,0,1,4.46-4.52l4.58,4.52V59.48a3.17,3.17,0,0,1,6.34,0V77.32l4.58-4.52a3.17,3.17,0,1,1,4.46,4.52l-10,9.84-.16.12a2.34,2.34,0,0,1-.3.25h0a1.3,1.3,0,0,1-.26.14,2,2,0,0,1-.25.14h0a1.4,1.4,0,0,1-.29.09l-.06,0-.21.06h0c-.1,0-.21,0-.31,0a2.85,2.85,0,0,1-.29,0h0Z"/></g></g></svg>